<mxfile host="app.diagrams.net" modified="2024-05-23T08:40:13.998Z" agent="Mozilla/5.0 (Windows NT 10.0; Win64; x64) AppleWebKit/537.36 (KHTML, like Gecko) Chrome/124.0.0.0 Safari/537.36" etag="Be8njMNJZlD7GtFC0wYu" version="24.4.6" type="device">
  <diagram name="Page-1" id="hulA7HbLjxlJ7WIDWfl5">
    <mxGraphModel dx="1434" dy="772" grid="1" gridSize="10" guides="1" tooltips="1" connect="1" arrows="1" fold="1" page="1" pageScale="1" pageWidth="850" pageHeight="1100" math="0" shadow="0">
      <root>
        <mxCell id="0" />
        <mxCell id="1" parent="0" />
        <mxCell id="lwTxpfjI6xgQUl9Y8i18-13" style="edgeStyle=orthogonalEdgeStyle;rounded=0;orthogonalLoop=1;jettySize=auto;html=1;exitX=1;exitY=0;exitDx=0;exitDy=0;entryX=0;entryY=0.5;entryDx=0;entryDy=0;curved=1;" parent="1" source="lwTxpfjI6xgQUl9Y8i18-1" target="lwTxpfjI6xgQUl9Y8i18-2" edge="1">
          <mxGeometry relative="1" as="geometry" />
        </mxCell>
        <mxCell id="lwTxpfjI6xgQUl9Y8i18-1" value="&lt;i&gt;sIdle&lt;/i&gt;&lt;div&gt;-----------------------------------&lt;/div&gt;&lt;div&gt;&lt;div&gt;&lt;font style=&quot;font-size: 10px;&quot;&gt;rdWrAddr = 0&lt;/font&gt;&lt;/div&gt;&lt;div&gt;&lt;font style=&quot;font-size: 10px;&quot;&gt;requestedActionOfThePacket = 0&lt;/font&gt;&lt;/div&gt;&lt;div&gt;&lt;font style=&quot;font-size: 9px;&quot;&gt;requestedActionOfThePacketValid = 0&lt;/font&gt;&lt;/div&gt;&lt;div&gt;&lt;font style=&quot;font-size: 10px;&quot;&gt;finishedReceivingBuffer = 0&lt;br&gt;&lt;/font&gt;&lt;/div&gt;&lt;div&gt;&lt;font style=&quot;font-size: 10px;&quot;&gt;dataValidOutput = 0&amp;nbsp;&lt;/font&gt;&lt;/div&gt;&lt;div&gt;&lt;font style=&quot;font-size: 10px;&quot;&gt;receivingData = 0&lt;/font&gt;&lt;/div&gt;&lt;/div&gt;" style="ellipse;whiteSpace=wrap;html=1;" parent="1" vertex="1">
          <mxGeometry x="28" y="200" width="160" height="150" as="geometry" />
        </mxCell>
        <mxCell id="lwTxpfjI6xgQUl9Y8i18-14" style="edgeStyle=orthogonalEdgeStyle;rounded=0;orthogonalLoop=1;jettySize=auto;html=1;exitX=1;exitY=0;exitDx=0;exitDy=0;entryX=0;entryY=0;entryDx=0;entryDy=0;curved=1;" parent="1" source="lwTxpfjI6xgQUl9Y8i18-2" target="lwTxpfjI6xgQUl9Y8i18-3" edge="1">
          <mxGeometry relative="1" as="geometry" />
        </mxCell>
        <mxCell id="lwTxpfjI6xgQUl9Y8i18-2" value="&lt;div&gt;&lt;i&gt;sReadChecksum&lt;/i&gt;&lt;/div&gt;&lt;div&gt;-------------------------------------&lt;/div&gt;&lt;div&gt;&lt;span style=&quot;background-color: initial;&quot;&gt;rdWrAddr = (chksm offset)&lt;/span&gt;&lt;br&gt;&lt;/div&gt;&lt;div&gt;&lt;br&gt;&lt;/div&gt;&lt;div&gt;&lt;br&gt;&lt;/div&gt;&lt;div&gt;&lt;br&gt;&lt;/div&gt;&lt;div&gt;&lt;br&gt;&lt;/div&gt;" style="ellipse;whiteSpace=wrap;html=1;" parent="1" vertex="1">
          <mxGeometry x="188" y="70" width="160" height="150" as="geometry" />
        </mxCell>
        <mxCell id="lwTxpfjI6xgQUl9Y8i18-15" style="edgeStyle=orthogonalEdgeStyle;rounded=0;orthogonalLoop=1;jettySize=auto;html=1;exitX=1;exitY=0.5;exitDx=0;exitDy=0;curved=1;" parent="1" source="lwTxpfjI6xgQUl9Y8i18-3" target="lwTxpfjI6xgQUl9Y8i18-4" edge="1">
          <mxGeometry relative="1" as="geometry" />
        </mxCell>
        <mxCell id="C3bkKaWbWkA_KK6P-hFP-11" style="edgeStyle=orthogonalEdgeStyle;curved=1;rounded=0;orthogonalLoop=1;jettySize=auto;html=1;exitX=0;exitY=0.5;exitDx=0;exitDy=0;entryX=1;entryY=0;entryDx=0;entryDy=0;" edge="1" parent="1" source="lwTxpfjI6xgQUl9Y8i18-3" target="lwTxpfjI6xgQUl9Y8i18-9">
          <mxGeometry relative="1" as="geometry">
            <Array as="points">
              <mxPoint x="388" y="250" />
              <mxPoint x="220" y="250" />
              <mxPoint x="220" y="414" />
            </Array>
          </mxGeometry>
        </mxCell>
        <mxCell id="lwTxpfjI6xgQUl9Y8i18-3" value="&lt;div&gt;&lt;i&gt;sReadIndicator&lt;/i&gt;&lt;/div&gt;&lt;div&gt;-------------------------------------&lt;/div&gt;&lt;div&gt;&lt;div&gt;&lt;span style=&quot;background-color: initial;&quot;&gt;rdWrAddr = (indicator offset)&lt;/span&gt;&lt;br&gt;&lt;/div&gt;&lt;div&gt;&lt;br&gt;&lt;/div&gt;&lt;/div&gt;&lt;div&gt;&lt;br&gt;&lt;/div&gt;&lt;div&gt;&lt;br&gt;&lt;/div&gt;&lt;div&gt;&lt;br&gt;&lt;/div&gt;" style="ellipse;whiteSpace=wrap;html=1;" parent="1" vertex="1">
          <mxGeometry x="388" y="70" width="160" height="150" as="geometry" />
        </mxCell>
        <mxCell id="lwTxpfjI6xgQUl9Y8i18-16" style="edgeStyle=orthogonalEdgeStyle;rounded=0;orthogonalLoop=1;jettySize=auto;html=1;exitX=0.5;exitY=1;exitDx=0;exitDy=0;entryX=0.5;entryY=0;entryDx=0;entryDy=0;" parent="1" source="lwTxpfjI6xgQUl9Y8i18-4" target="lwTxpfjI6xgQUl9Y8i18-5" edge="1">
          <mxGeometry relative="1" as="geometry" />
        </mxCell>
        <mxCell id="lwTxpfjI6xgQUl9Y8i18-4" value="&lt;div&gt;&lt;font style=&quot;font-size: 11px;&quot;&gt;&lt;i&gt;sReadTypeOfThePacket&lt;/i&gt;&lt;/font&gt;&lt;/div&gt;&lt;div&gt;--------------------------------------&lt;/div&gt;&lt;div&gt;&lt;div&gt;&lt;span style=&quot;background-color: initial;&quot;&gt;rdWrAddr = (tp of pckt offset)&lt;/span&gt;&lt;br&gt;&lt;/div&gt;&lt;div&gt;&lt;br&gt;&lt;/div&gt;&lt;/div&gt;&lt;div&gt;&lt;br&gt;&lt;/div&gt;&lt;div&gt;&lt;br&gt;&lt;/div&gt;&lt;div&gt;&lt;br&gt;&lt;/div&gt;" style="ellipse;whiteSpace=wrap;html=1;" parent="1" vertex="1">
          <mxGeometry x="520" y="200" width="162" height="160" as="geometry" />
        </mxCell>
        <mxCell id="C3bkKaWbWkA_KK6P-hFP-9" style="edgeStyle=orthogonalEdgeStyle;curved=1;rounded=0;orthogonalLoop=1;jettySize=auto;html=1;exitX=0;exitY=1;exitDx=0;exitDy=0;entryX=1;entryY=0.5;entryDx=0;entryDy=0;" edge="1" parent="1" source="lwTxpfjI6xgQUl9Y8i18-5" target="lwTxpfjI6xgQUl9Y8i18-9">
          <mxGeometry relative="1" as="geometry">
            <Array as="points">
              <mxPoint x="198" y="518" />
            </Array>
          </mxGeometry>
        </mxCell>
        <mxCell id="lwTxpfjI6xgQUl9Y8i18-5" value="&lt;div&gt;&lt;div style=&quot;&quot;&gt;&lt;font style=&quot;font-size: 7px;&quot;&gt;&lt;b style=&quot;&quot;&gt;&lt;i style=&quot;&quot;&gt;sReadRequestedActionOfThePacket&lt;/i&gt;&lt;/b&gt;&lt;/font&gt;&lt;/div&gt;&lt;div style=&quot;font-size: 11px;&quot;&gt;----------------------------------------&lt;/div&gt;&lt;div&gt;&lt;div&gt;&lt;span style=&quot;background-color: initial;&quot;&gt;rdWrAddr = (rq act pckt ofst)&lt;/span&gt;&lt;br&gt;&lt;/div&gt;&lt;div&gt;&lt;br&gt;&lt;/div&gt;&lt;/div&gt;&lt;div&gt;&lt;br&gt;&lt;/div&gt;&lt;/div&gt;&lt;div&gt;&lt;br&gt;&lt;/div&gt;&lt;div&gt;&lt;br&gt;&lt;/div&gt;" style="ellipse;whiteSpace=wrap;html=1;" parent="1" vertex="1">
          <mxGeometry x="528" y="390" width="160" height="150" as="geometry" />
        </mxCell>
        <mxCell id="lwTxpfjI6xgQUl9Y8i18-9" value="&lt;div&gt;&lt;i&gt;sDone&lt;br&gt;&lt;/i&gt;&lt;/div&gt;&lt;div&gt;----------------------------------&lt;/div&gt;&lt;div&gt;&lt;div&gt;&lt;font style=&quot;&quot;&gt;&lt;div style=&quot;&quot;&gt;&lt;font style=&quot;font-size: 8px;&quot;&gt;&lt;b&gt;requestedActionOfThePacketOutput = 0&lt;/b&gt;&lt;/font&gt;&lt;/div&gt;&lt;div style=&quot;&quot;&gt;&lt;font style=&quot;font-size: 7px;&quot;&gt;&lt;b&gt;requestedActionOfThePacketOutputValid = 0&lt;/b&gt;&lt;/font&gt;&lt;/div&gt;&lt;div style=&quot;font-size: 11px;&quot;&gt;receivingData = 0&lt;/div&gt;&lt;div style=&quot;font-size: 11px;&quot;&gt;dataValidOutput = 0&lt;/div&gt;&lt;div style=&quot;&quot;&gt;&lt;font style=&quot;font-size: 10px;&quot;&gt;finishedReceivingBuffer = 1&lt;/font&gt;&lt;/div&gt;&lt;/font&gt;&lt;/div&gt;&lt;/div&gt;" style="ellipse;whiteSpace=wrap;html=1;" parent="1" vertex="1">
          <mxGeometry x="37" y="392" width="160" height="150" as="geometry" />
        </mxCell>
        <mxCell id="lwTxpfjI6xgQUl9Y8i18-27" style="edgeStyle=orthogonalEdgeStyle;rounded=0;orthogonalLoop=1;jettySize=auto;html=1;curved=1;" parent="1" source="lwTxpfjI6xgQUl9Y8i18-9" target="lwTxpfjI6xgQUl9Y8i18-1" edge="1">
          <mxGeometry relative="1" as="geometry">
            <mxPoint x="316.4314575050762" y="301.96699141100885" as="sourcePoint" />
            <Array as="points">
              <mxPoint x="108" y="520" />
            </Array>
          </mxGeometry>
        </mxCell>
        <mxCell id="lwTxpfjI6xgQUl9Y8i18-11" value="" style="endArrow=classic;html=1;rounded=0;exitX=0.25;exitY=1;exitDx=0;exitDy=0;entryX=0;entryY=0;entryDx=0;entryDy=0;" parent="1" source="lwTxpfjI6xgQUl9Y8i18-12" edge="1">
          <mxGeometry width="50" height="50" relative="1" as="geometry">
            <mxPoint x="34" y="120" as="sourcePoint" />
            <mxPoint x="34.431457505076196" y="241.96699141100885" as="targetPoint" />
            <Array as="points" />
          </mxGeometry>
        </mxCell>
        <mxCell id="lwTxpfjI6xgQUl9Y8i18-12" value="&lt;b&gt;Reset&lt;/b&gt;" style="text;html=1;align=left;verticalAlign=middle;whiteSpace=wrap;rounded=0;" parent="1" vertex="1">
          <mxGeometry x="20" y="60" width="60" height="30" as="geometry" />
        </mxCell>
        <mxCell id="lwTxpfjI6xgQUl9Y8i18-20" value="&lt;b&gt;plInSignal&lt;/b&gt;&lt;b style=&quot;font-size: 11px;&quot;&gt;&amp;nbsp;= 1&lt;/b&gt;" style="text;html=1;align=center;verticalAlign=middle;whiteSpace=wrap;rounded=0;rotation=0;fontSize=11;" parent="1" vertex="1">
          <mxGeometry x="38" y="161" width="140" height="30" as="geometry" />
        </mxCell>
        <mxCell id="lwTxpfjI6xgQUl9Y8i18-36" style="edgeStyle=orthogonalEdgeStyle;rounded=0;orthogonalLoop=1;jettySize=auto;html=1;exitX=0.5;exitY=1;exitDx=0;exitDy=0;" parent="1" edge="1">
          <mxGeometry relative="1" as="geometry">
            <mxPoint x="328" y="640" as="sourcePoint" />
            <mxPoint x="328" y="640" as="targetPoint" />
          </mxGeometry>
        </mxCell>
        <mxCell id="lwTxpfjI6xgQUl9Y8i18-46" style="edgeStyle=orthogonalEdgeStyle;rounded=0;orthogonalLoop=1;jettySize=auto;html=1;entryX=1;entryY=1;entryDx=0;entryDy=0;curved=1;" parent="1" source="lwTxpfjI6xgQUl9Y8i18-1" target="lwTxpfjI6xgQUl9Y8i18-1" edge="1">
          <mxGeometry relative="1" as="geometry">
            <mxPoint x="200" y="260" as="sourcePoint" />
            <Array as="points">
              <mxPoint x="200" y="275" />
              <mxPoint x="200" y="370" />
              <mxPoint x="165" y="370" />
            </Array>
          </mxGeometry>
        </mxCell>
        <mxCell id="lwTxpfjI6xgQUl9Y8i18-47" value="&lt;span style=&quot;font-size: 11px;&quot;&gt;&lt;b&gt;plInSignal&amp;nbsp;&lt;/b&gt;&lt;/span&gt;&lt;b style=&quot;font-size: 11px;&quot;&gt;= 0&lt;/b&gt;" style="text;html=1;align=center;verticalAlign=middle;whiteSpace=wrap;rounded=0;rotation=0;" parent="1" vertex="1">
          <mxGeometry x="94" y="361" width="152" height="30" as="geometry" />
        </mxCell>
        <mxCell id="C3bkKaWbWkA_KK6P-hFP-10" style="edgeStyle=orthogonalEdgeStyle;curved=1;rounded=0;orthogonalLoop=1;jettySize=auto;html=1;exitX=1;exitY=0.25;exitDx=0;exitDy=0;entryX=1;entryY=0.5;entryDx=0;entryDy=0;" edge="1" parent="1" source="lwTxpfjI6xgQUl9Y8i18-48" target="lwTxpfjI6xgQUl9Y8i18-9">
          <mxGeometry relative="1" as="geometry">
            <Array as="points">
              <mxPoint x="535" y="470" />
              <mxPoint x="197" y="470" />
            </Array>
          </mxGeometry>
        </mxCell>
        <mxCell id="lwTxpfjI6xgQUl9Y8i18-48" value="&lt;font style=&quot;font-size: 34px;&quot;&gt;Moore FSM of hwdbg&#39;s Receiver Module&lt;/font&gt;" style="text;html=1;align=center;verticalAlign=middle;whiteSpace=wrap;rounded=0;fontStyle=1;fontSize=38;" parent="1" vertex="1">
          <mxGeometry x="220" y="320" width="315" height="30" as="geometry" />
        </mxCell>
        <mxCell id="mkyn7TBVddlZBMcVp8Z8-4" value="&lt;b&gt;valid indicator&lt;/b&gt;" style="text;html=1;align=center;verticalAlign=middle;whiteSpace=wrap;rounded=0;rotation=0;fontSize=11;" parent="1" vertex="1">
          <mxGeometry x="582" y="359" width="140" height="30" as="geometry" />
        </mxCell>
        <mxCell id="mkyn7TBVddlZBMcVp8Z8-7" value="&lt;b&gt;valid packet type&lt;/b&gt;" style="text;html=1;align=center;verticalAlign=middle;whiteSpace=wrap;rounded=0;rotation=0;fontSize=11;" parent="1" vertex="1">
          <mxGeometry x="430" y="526" width="140" height="30" as="geometry" />
        </mxCell>
        <mxCell id="C3bkKaWbWkA_KK6P-hFP-4" style="edgeStyle=orthogonalEdgeStyle;curved=1;rounded=0;orthogonalLoop=1;jettySize=auto;html=1;exitX=0;exitY=0;exitDx=0;exitDy=0;entryX=1;entryY=0;entryDx=0;entryDy=0;" edge="1" parent="1" source="2VVVqrn588o0OqSMZQ-B-1" target="2VVVqrn588o0OqSMZQ-B-2">
          <mxGeometry relative="1" as="geometry">
            <Array as="points">
              <mxPoint x="419" y="578" />
            </Array>
          </mxGeometry>
        </mxCell>
        <mxCell id="2VVVqrn588o0OqSMZQ-B-1" value="&lt;div&gt;&lt;i&gt;&lt;font style=&quot;font-size: 10px;&quot;&gt;sRequestedActionIsValid&lt;/font&gt;&lt;br&gt;&lt;/i&gt;&lt;/div&gt;&lt;div&gt;-----------------------------------&lt;/div&gt;&lt;div&gt;&lt;div&gt;&lt;font style=&quot;font-size: 10px;&quot;&gt;requestedActionOfThePacket = (packet type)&lt;br&gt;&lt;/font&gt;&lt;/div&gt;&lt;div&gt;&lt;font style=&quot;font-size: 10px;&quot;&gt;requestedActionOfThePacketValid = 1&lt;/font&gt;&lt;/div&gt;&lt;/div&gt;&lt;div&gt;&lt;font style=&quot;&quot;&gt;&lt;div style=&quot;&quot;&gt;&lt;span style=&quot;background-color: initial;&quot;&gt;&lt;font style=&quot;font-size: 11px;&quot;&gt;rdWrAddr = (next addr)&lt;/font&gt;&lt;/span&gt;&lt;/div&gt;&lt;div style=&quot;font-size: 10px;&quot;&gt;&lt;br&gt;&lt;/div&gt;&lt;/font&gt;&lt;/div&gt;" style="ellipse;whiteSpace=wrap;html=1;" parent="1" vertex="1">
          <mxGeometry x="460" y="556" width="160" height="150" as="geometry" />
        </mxCell>
        <mxCell id="C3bkKaWbWkA_KK6P-hFP-5" style="edgeStyle=orthogonalEdgeStyle;curved=1;rounded=0;orthogonalLoop=1;jettySize=auto;html=1;exitX=0;exitY=0;exitDx=0;exitDy=0;entryX=1;entryY=1;entryDx=0;entryDy=0;" edge="1" parent="1" source="2VVVqrn588o0OqSMZQ-B-2" target="lwTxpfjI6xgQUl9Y8i18-9">
          <mxGeometry relative="1" as="geometry">
            <Array as="points">
              <mxPoint x="305" y="520" />
            </Array>
          </mxGeometry>
        </mxCell>
        <mxCell id="C3bkKaWbWkA_KK6P-hFP-8" style="edgeStyle=orthogonalEdgeStyle;curved=1;rounded=0;orthogonalLoop=1;jettySize=auto;html=1;exitX=0;exitY=1;exitDx=0;exitDy=0;entryX=1;entryY=1;entryDx=0;entryDy=0;" edge="1" parent="1" source="2VVVqrn588o0OqSMZQ-B-2" target="WBZe0-MdCPCt5h2bKW3n-4">
          <mxGeometry relative="1" as="geometry">
            <Array as="points">
              <mxPoint x="243" y="708" />
            </Array>
          </mxGeometry>
        </mxCell>
        <mxCell id="2VVVqrn588o0OqSMZQ-B-2" value="&lt;div&gt;&lt;i&gt;sWaitToReadActionBuffer&lt;br&gt;&lt;/i&gt;&lt;/div&gt;&lt;div&gt;-----------------------------------&lt;/div&gt;&lt;div&gt;&lt;div&gt;&lt;div&gt;&lt;div&gt;dataValidOutput = 0&lt;br&gt;&lt;/div&gt;&lt;/div&gt;&lt;/div&gt;&lt;/div&gt;&lt;div&gt;&lt;br&gt;&lt;/div&gt;&lt;div&gt;&lt;br&gt;&lt;/div&gt;&lt;div&gt;&lt;br&gt;&lt;/div&gt;" style="ellipse;whiteSpace=wrap;html=1;" parent="1" vertex="1">
          <mxGeometry x="282" y="580" width="160" height="150" as="geometry" />
        </mxCell>
        <mxCell id="2VVVqrn588o0OqSMZQ-B-4" value="&lt;span style=&quot;font-size: 11px;&quot;&gt;&lt;b&gt;noNewData&amp;nbsp;&lt;/b&gt;&lt;/span&gt;&lt;b style=&quot;font-size: 11px;&quot;&gt;= 1&lt;/b&gt;&lt;div&gt;&lt;span style=&quot;font-size: 11px;&quot;&gt;&lt;b&gt;readNextData&lt;/b&gt;&lt;/span&gt;&lt;b style=&quot;font-size: 11px;&quot;&gt;&amp;nbsp;&lt;/b&gt;&lt;b style=&quot;font-size: 11px;&quot;&gt;= 0&lt;/b&gt;&lt;b style=&quot;font-size: 11px;&quot;&gt;&lt;br&gt;&lt;/b&gt;&lt;/div&gt;" style="text;html=1;align=center;verticalAlign=middle;whiteSpace=wrap;rounded=0;rotation=0;" parent="1" vertex="1">
          <mxGeometry x="262" y="530" width="152" height="30" as="geometry" />
        </mxCell>
        <mxCell id="2VVVqrn588o0OqSMZQ-B-6" value="&lt;span style=&quot;font-size: 11px;&quot;&gt;&lt;b&gt;readNextData&lt;/b&gt;&lt;/span&gt;&lt;b style=&quot;font-size: 11px;&quot;&gt;&amp;nbsp;&lt;/b&gt;&lt;b style=&quot;font-size: 11px;&quot;&gt;= 1&lt;/b&gt;&lt;div&gt;&lt;b style=&quot;font-size: 11px;&quot;&gt;noNewData = 0&lt;/b&gt;&lt;/div&gt;" style="text;html=1;align=center;verticalAlign=middle;whiteSpace=wrap;rounded=0;rotation=0;" parent="1" vertex="1">
          <mxGeometry x="178" y="706" width="152" height="30" as="geometry" />
        </mxCell>
        <mxCell id="2VVVqrn588o0OqSMZQ-B-9" value="&lt;span style=&quot;font-size: 11px;&quot;&gt;&lt;b&gt;noNewData&amp;nbsp;&lt;/b&gt;&lt;/span&gt;&lt;b style=&quot;font-size: 11px;&quot;&gt;= 0&lt;/b&gt;&lt;div&gt;&lt;span style=&quot;font-size: 11px;&quot;&gt;&lt;b&gt;readNextData = 0&lt;/b&gt;&lt;/span&gt;&lt;br&gt;&lt;/div&gt;" style="text;html=1;align=center;verticalAlign=middle;whiteSpace=wrap;rounded=0;rotation=0;" parent="1" vertex="1">
          <mxGeometry x="430" y="720" width="152" height="30" as="geometry" />
        </mxCell>
        <mxCell id="2VVVqrn588o0OqSMZQ-B-15" value="&lt;b&gt;invalid indicator&lt;/b&gt;" style="text;html=1;align=center;verticalAlign=middle;whiteSpace=wrap;rounded=0;rotation=0;fontSize=11;" parent="1" vertex="1">
          <mxGeometry x="330" y="430" width="140" height="30" as="geometry" />
        </mxCell>
        <mxCell id="2VVVqrn588o0OqSMZQ-B-20" value="&lt;b&gt;invalid packet type&lt;/b&gt;" style="text;html=1;align=center;verticalAlign=middle;whiteSpace=wrap;rounded=0;rotation=0;fontSize=11;" parent="1" vertex="1">
          <mxGeometry x="292" y="487" width="140" height="32" as="geometry" />
        </mxCell>
        <mxCell id="WBZe0-MdCPCt5h2bKW3n-19" style="edgeStyle=orthogonalEdgeStyle;rounded=0;orthogonalLoop=1;jettySize=auto;html=1;exitX=0;exitY=1;exitDx=0;exitDy=0;entryX=0.5;entryY=1;entryDx=0;entryDy=0;curved=1;" parent="1" source="WBZe0-MdCPCt5h2bKW3n-4" target="2VVVqrn588o0OqSMZQ-B-2" edge="1">
          <mxGeometry relative="1" as="geometry">
            <Array as="points">
              <mxPoint x="129" y="760" />
              <mxPoint x="362" y="760" />
            </Array>
          </mxGeometry>
        </mxCell>
        <mxCell id="WBZe0-MdCPCt5h2bKW3n-21" style="edgeStyle=orthogonalEdgeStyle;rounded=0;orthogonalLoop=1;jettySize=auto;html=1;exitX=0;exitY=0.5;exitDx=0;exitDy=0;entryX=0;entryY=1;entryDx=0;entryDy=0;curved=1;" parent="1" source="WBZe0-MdCPCt5h2bKW3n-4" target="lwTxpfjI6xgQUl9Y8i18-9" edge="1">
          <mxGeometry relative="1" as="geometry" />
        </mxCell>
        <mxCell id="WBZe0-MdCPCt5h2bKW3n-4" value="&lt;div&gt;&lt;i&gt;sReadActionBuffer&lt;br&gt;&lt;/i&gt;&lt;/div&gt;&lt;div&gt;-----------------------------------&lt;/div&gt;&lt;div&gt;&lt;div&gt;&lt;div&gt;&lt;div&gt;dataValidOutput = 1&lt;/div&gt;&lt;/div&gt;&lt;/div&gt;&lt;/div&gt;&lt;div&gt;receivingData = (rcvd data)&lt;/div&gt;&lt;div&gt;&lt;br&gt;&lt;/div&gt;&lt;div&gt;&lt;br&gt;&lt;/div&gt;&lt;div&gt;&lt;br&gt;&lt;/div&gt;&lt;div&gt;&lt;br&gt;&lt;/div&gt;" style="ellipse;whiteSpace=wrap;html=1;" parent="1" vertex="1">
          <mxGeometry x="106" y="554" width="160" height="150" as="geometry" />
        </mxCell>
        <mxCell id="WBZe0-MdCPCt5h2bKW3n-7" style="edgeStyle=orthogonalEdgeStyle;rounded=0;orthogonalLoop=1;jettySize=auto;html=1;exitX=0.5;exitY=1;exitDx=0;exitDy=0;" parent="1" source="lwTxpfjI6xgQUl9Y8i18-48" target="lwTxpfjI6xgQUl9Y8i18-48" edge="1">
          <mxGeometry relative="1" as="geometry" />
        </mxCell>
        <mxCell id="WBZe0-MdCPCt5h2bKW3n-18" style="edgeStyle=orthogonalEdgeStyle;rounded=0;orthogonalLoop=1;jettySize=auto;html=1;exitX=1;exitY=0.5;exitDx=0;exitDy=0;entryX=1;entryY=1;entryDx=0;entryDy=0;curved=1;" parent="1" source="2VVVqrn588o0OqSMZQ-B-2" target="2VVVqrn588o0OqSMZQ-B-2" edge="1">
          <mxGeometry relative="1" as="geometry" />
        </mxCell>
        <mxCell id="WBZe0-MdCPCt5h2bKW3n-20" value="&lt;span style=&quot;font-size: 11px;&quot;&gt;&lt;b&gt;noNewData&amp;nbsp;&lt;/b&gt;&lt;/span&gt;&lt;b style=&quot;font-size: 11px;&quot;&gt;= 0&lt;/b&gt;" style="text;html=1;align=center;verticalAlign=middle;whiteSpace=wrap;rounded=0;rotation=0;" parent="1" vertex="1">
          <mxGeometry x="35" y="725" width="152" height="30" as="geometry" />
        </mxCell>
        <mxCell id="WBZe0-MdCPCt5h2bKW3n-22" value="&lt;span style=&quot;font-size: 11px;&quot;&gt;&lt;b&gt;noNewData&amp;nbsp;&lt;/b&gt;&lt;/span&gt;&lt;b style=&quot;font-size: 11px;&quot;&gt;= 1&lt;/b&gt;" style="text;html=1;align=center;verticalAlign=middle;whiteSpace=wrap;rounded=0;rotation=0;" parent="1" vertex="1">
          <mxGeometry x="32" y="542" width="152" height="30" as="geometry" />
        </mxCell>
        <mxCell id="C3bkKaWbWkA_KK6P-hFP-1" style="edgeStyle=orthogonalEdgeStyle;curved=1;rounded=0;orthogonalLoop=1;jettySize=auto;html=1;exitX=0.5;exitY=1;exitDx=0;exitDy=0;entryX=0.819;entryY=0.127;entryDx=0;entryDy=0;entryPerimeter=0;" edge="1" parent="1" source="lwTxpfjI6xgQUl9Y8i18-5" target="2VVVqrn588o0OqSMZQ-B-1">
          <mxGeometry relative="1" as="geometry">
            <Array as="points">
              <mxPoint x="591" y="540" />
            </Array>
          </mxGeometry>
        </mxCell>
        <mxCell id="C3bkKaWbWkA_KK6P-hFP-12" value="&lt;span style=&quot;font-size: 11px;&quot;&gt;&lt;b&gt;invalid checksum&lt;/b&gt;&lt;/span&gt;" style="text;html=1;align=center;verticalAlign=middle;whiteSpace=wrap;rounded=0;rotation=0;" vertex="1" parent="1">
          <mxGeometry x="225" y="220" width="152" height="30" as="geometry" />
        </mxCell>
      </root>
    </mxGraphModel>
  </diagram>
</mxfile>
